<svg xmlns="http://www.w3.org/2000/svg" viewBox="0 0 16 16">
  <path fill="#000" d="m 7.4887216,0 -4.7839597,1.9829574 1.451629,1.451629 3.3323307,-1.3814537 z m 1.0225565,0 v 2.0531327 l 3.3323309,1.3814537 1.451629,-1.451629 z M 1.9829573,2.7047619 0,7.4867167 H 2.0531328 L 3.4345864,4.1563909 Z m 12.0340857,0 -1.451629,1.451629 1.381453,3.3303258 H 16 Z m -6.0170432,0.162406 -3.6290726,1.5037594 -1.5037594,3.6290726 1.5037594,3.6290721 3.6290726,1.50376 3.6290722,-1.50376 1.50376,-3.6290721 -1.50376,-3.6290726 z M 0,8.5132831 1.9829573,13.295238 3.4345864,11.843609 2.0531328,8.5132831 Z m 13.946867,0 -1.381453,3.3303259 1.451629,1.451629 L 16,8.5132831 Z M 4.1563909,12.565414 2.7047619,14.017042 7.4887216,16 v -2.053133 z m 7.6872181,0 -3.3323309,1.381453 V 16 l 4.7839599,-1.982958 z" />
</svg>